[img]http://img69.imageshack.us/img69/7159/thevampirediariesseason.png[/img]

[size=200][color=black]TV INFO[/color][/size]

[code]The Vampire Diaries S04E10 HDTV x264 AAC-V3nom

Format                                   : MPEG-4
Format profile                           : Base Media / Version 2
Codec ID                                 : mp42
File size                                : 119 MiB
Duration                                 : 42mn 0s
Overall bit rate mode                    : Variable
Overall bit rate                         : 397 Kbps
Encoded date                             : UTC 2013-01-18 09:29:26
Tagged date                              : UTC 2013-01-18 09:44:12

Video
ID                                       : 1
Format                                   : AVC
Format/Info                              : Advanced Video Codec
Format profile                           : Main@L2.1
Format settings, CABAC                   : Yes
Format settings, ReFrames                : 4 frames
Codec ID                                 : avc1
Codec ID/Info                            : Advanced Video Coding
Duration                                 : 42mn 0s
Bit rate mode                            : Variable
Bit rate                                 : 299 Kbps
Width                                    : 624 pixels
Height                                   : 272 pixels
Display aspect ratio                     : 16:9
Original display aspect ratio            : 16:9
Frame rate mode                          : Variable
Frame rate                               : 23.754 fps
Minimum frame rate                       : 0.240 fps
Maximum frame rate                       : 23.981 fps
Color space                              : YUV
Chroma subsampling                       : 4:2:0
Bit depth                                : 8 bits
Scan type                                : Progressive
Bits/(Pixel*Frame)                       : 0.074
Stream size                              : 88.9 MiB (75%)
Writing library                          : x264 core 112

Audio
ID                                       : 2
Format                                   : AAC
Format/Info                              : Advanced Audio Codec
Format profile                           : LC
Codec ID                                 : 40
Duration                                 : 42mn 0s
Bit rate mode                            : Variable
Bit rate                                 : 96.0 Kbps
Maximum bit rate                         : 182 Kbps
Channel(s)                               : 2 channels
Channel positions                        : Front: L R
Sampling rate                            : 48.0 KHz
Compression mode                         : Lossy
Delay relative to video                  : 624ms
Stream size                              : 28.8 MiB (24%)
Encoded date                             : UTC 2013-01-18 09:29:26
Tagged date                              : UTC 2013-01-18 09:44:10
[/code]

[size=200][color=black]SOURCE[/color][/size]

[code]The Vampire Diaries S04E10 HDTV XviD-3LT0N[ettv](THANKS)[/code]

[size=200][color=black]SCREENSHOTS[/color][/size]

[img]http://img832.imageshack.us/img832/3140/thevampirediariess04e10.jpg[/img]

[img]http://kastatic.com/i2/users/133df62bbf28e62494bb17fe11078f1a.gif[/img][img]http://kastatic.com/i2/users/133df62bbf28e62494bb17fe11078f1a.gif[/img]
